# xmcd
#
# Track frame offsets:
#	150
#	18827
#	40152
#	61542
#
# Disc length: 1080 seconds
#
# Revision: 1
# Processed by: cddbd v1.5.1PL0 Copyright (c) Steve Scherf et al.
# Submitted via: EasyCDDAExtractor 8.0.2.1
#
DISCID=21043604
DTITLE=Arrested Development - Tennessee [CD Single)
DYEAR=1992
DGENRE=R&B
TTITLE0=Tennessee (The Mix)
TTITLE1=Tennessee (Remix)
TTITLE2=Tennessee (Dub Mix)
TTITLE3=Narural
EXTD=
EXTT0=
EXTT1=
EXTT2=
EXTT3=
PLAYORDER=
